<?xml version="1.0" standalone="no"?>
<!DOCTYPE svg PUBLIC "-//W3C//DTD SVG 20010904//EN"
 "http://www.w3.org/TR/2001/REC-SVG-20010904/DTD/svg10.dtd">
<svg version="1.0" xmlns="http://www.w3.org/2000/svg"
 width="1228.000000pt" height="1228.000000pt" viewBox="0 0 1228.000000 1228.000000"
 preserveAspectRatio="xMidYMid meet">
<metadata>
Created by potrace 1.14, written by Peter Selinger 2001-2017
</metadata>
<g transform="translate(0.000000,1228.000000) scale(0.100000,-0.100000)"
fill="#000000" stroke="none">
<path d="M5889 11696 c-2 -2 -53 -6 -114 -10 -110 -6 -176 -11 -250 -20 -22
-3 -67 -8 -100 -11 -33 -4 -67 -8 -75 -10 -8 -2 -37 -7 -65 -11 -27 -3 -59 -8
-70 -10 -11 -3 -35 -7 -54 -10 -18 -3 -43 -8 -55 -10 -11 -2 -37 -7 -56 -10
-69 -11 -298 -65 -425 -100 -242 -67 -520 -165 -755 -266 -111 -48 -485 -231
-505 -248 -5 -4 -32 -20 -60 -35 -252 -138 -649 -416 -884 -620 -191 -166
-437 -408 -564 -555 -22 -25 -51 -58 -67 -75 -15 -16 -67 -79 -114 -140 -48
-60 -93 -117 -99 -125 -22 -27 -133 -184 -190 -267 -196 -289 -409 -689 -541
-1018 -16 -38 -34 -83 -42 -100 -97 -227 -271 -849 -299 -1072 -2 -12 -6 -36
-10 -53 -4 -17 -8 -41 -10 -53 -1 -12 -6 -44 -9 -72 -4 -27 -9 -61 -11 -75 -3
-14 -7 -43 -9 -65 -3 -22 -8 -67 -11 -100 -12 -106 -13 -127 -21 -265 -12
-226 -6 -723 11 -808 1 -10 6 -55 10 -102 4 -47 8 -87 10 -90 2 -3 6 -34 10
-70 4 -36 9 -74 11 -85 2 -10 6 -35 9 -55 3 -20 7 -47 10 -60 3 -14 8 -41 11
-60 12 -72 65 -326 75 -356 5 -17 11 -41 14 -52 9 -50 58 -217 104 -357 158
-487 384 -955 670 -1390 36 -55 68 -102 71 -105 4 -3 21 -27 40 -55 75 -112
231 -309 370 -469 82 -93 325 -341 449 -456 70 -65 289 -245 396 -324 72 -54
137 -103 146 -109 8 -7 22 -16 31 -22 8 -5 35 -23 59 -39 183 -122 311 -200
454 -278 97 -53 376 -190 455 -223 36 -15 83 -35 105 -45 90 -41 453 -171 515
-185 3 -1 38 -11 78 -24 259 -79 700 -168 972 -195 283 -29 325 -31 630 -31
268 0 415 5 540 20 19 2 62 6 95 10 33 3 71 8 85 10 14 2 48 6 75 10 70 8 281
44 335 57 25 5 59 12 75 15 17 3 91 20 165 39 74 19 142 37 150 39 217 51 863
292 923 343 9 8 17 12 17 9 0 -12 286 139 485 256 232 137 634 423 761 542 6
5 42 37 80 70 206 180 435 413 599 610 36 44 74 89 83 100 58 66 216 285 309
426 139 211 133 201 139 221 4 10 10 18 15 18 5 0 9 4 9 9 0 5 23 49 51 98 51
89 218 420 253 503 10 25 37 88 58 140 99 233 241 676 283 878 2 9 15 71 29
137 13 66 28 138 32 160 4 22 8 42 9 45 0 3 5 32 9 65 4 32 10 68 12 78 2 11
6 45 10 76 3 31 8 64 10 75 2 10 6 51 10 90 3 39 8 82 10 96 7 45 18 361 18
515 -1 144 -9 346 -19 437 -2 24 -7 70 -10 103 -20 224 -75 544 -135 785 -41
162 -37 147 -55 210 -9 30 -23 78 -30 105 -22 76 -150 437 -175 490 -5 11 -39
88 -75 170 -170 384 -373 730 -649 1105 -43 58 -239 302 -265 330 -9 9 -59 64
-111 121 -172 187 -372 377 -556 526 -21 18 -66 54 -99 81 -336 273 -837 572
-1270 757 -60 25 -123 53 -140 60 -136 60 -620 217 -745 241 -14 3 -43 10 -65
16 -48 12 -42 11 -190 42 -66 13 -140 27 -165 31 -24 4 -47 8 -50 10 -3 1 -32
6 -65 10 -33 4 -69 9 -80 10 -11 2 -45 6 -75 10 -30 3 -66 8 -80 10 -14 2 -58
7 -99 10 -41 4 -97 9 -125 11 -59 6 -652 15 -657 10z"/>
</g>
</svg>
